# AST/ASF file generated using VICON BodyLanguage
# -----------------------------------------------
:version 1.10
:name VICON
:units
  mass 1.0
  length 0.45
  angle deg
:documentation
   .ast/.asf automatically generated from VICON data using
   VICON BodyBuilder and BodyLanguage model FoxedUp or BRILLIANT.MOD
:root
   order TX TY TZ RX RY RZ
   axis XYZ
   position 0 0 0  
   orientation 0 0 0 
:bonedata
  begin
     id 1 
     name lhipjoint
     direction 0.567149 -0.783011 0.255413 
     length 2.28399 
     axis 0 0 0  XYZ
  end
  begin
     id 2 
     name lfemur
     direction 0.34202 -0.939693 0  
     length 7.34031  
     axis 0 0 20  XYZ
    dof rx ry rz
    limits (-160.0 20.0)
           (-70.0 70.0)
           (-60.0 70.0)
  end
  begin
     id 3 
     name ltibia
     direction 0.34202 -0.939693 0   
     length 6.9833   
     axis 0 0 20   XYZ
    dof rx
    limits (-10.0 170.0)
  end
  begin
     id 4 
     name lfoot
     direction 0.136498 -0.375025 0.91691   
     length 2.33665   
     axis -90 7.62852e-016 20   XYZ
    dof rx rz
    limits (-45.0 90.0)
           (-70.0 20.0)
  end
  begin
     id 5 
     name ltoes
     direction 1.5367e-011 -4.21617e-011 1   
     length 1.15039   
     axis -90 7.62852e-016 20   XYZ
    dof rx
    limits (-90.0 20.0)
  end
  begin
     id 6 
     name rhipjoint
     direction -0.602854 -0.758518 0.247423   
     length 2.35775  
     axis 0 0 0  XYZ 
  end
  begin
     id 7 
     name rfemur
     direction -0.34202 -0.939693 0   
     length 7.43932   
     axis 0 0 -20   XYZ
    dof rx ry rz
    limits (-160.0 20.0)
           (-70.0 70.0)
           (-70.0 60.0)
  end
  begin
     id 8 
     name rtibia
     direction -0.34202 -0.939693 0   
     length 7.11893   
     axis 0 0 -20   XYZ
    dof rx
    limits (-10.0 170.0)
 end
 begin
     id 9 
     name rfoot
     direction -0.131771 -0.362037 0.922803   
     length 2.53019  
     axis -90 -7.62852e-016 -20   XYZ
    dof rx rz
    limits (-45.0 90.0)
           (-20.0 70.0)
  end
  begin
     id 10 
     name rtoes
     direction -1.53733e-011 -4.21932e-011 1   
     length 1.24596   
     axis -90 -7.62852e-016 -20   XYZ
    dof rx
    limits (-90.0 20.0)
  end
  begin
     id 11 
     name lowerback
     direction 0.0235427 0.999023 -0.0374125   
     length 2.21768   
     axis 0 0 0   XYZ
    dof rx ry rz
    limits (-20.0 45.0)
           (-30.0 30.0)
           (-30.0 30.0)
  end
  begin
     id 12 
     name upperback
     direction 0.0302156 0.996818 -0.073759   
     length 2.20352   
     axis 0 0 0   XYZ
    dof rx ry rz
    limits (-20.0 45.0)
           (-30.0 30.0)
           (-30.0 30.0)
  end
  begin
     id 13 
     name thorax
     direction 0.0187169 0.998235 -0.0563532   
     length 2.22103   
     axis 0 0 0   XYZ
    dof rx ry rz
    limits (-20.0 45.0)
           (-30.0 30.0)
           (-30.0 30.0)
  end
  begin
     id 14 
     name lowerneck
     direction -0.119528 0.987423 0.103481   
     length 1.72948   
     axis 0 0 0   XYZ
    dof rx ry rz
    limits (-20.0 45.0)
           (-30.0 30.0)
           (-30.0 30.0)
  end
  begin
     id 15 
     name upperneck
     direction 0.248049 0.963095 -0.104496   
     length 1.74979   
     axis 0 0 0   XYZ
    dof rx ry rz
    limits (-20.0 45.0)
           (-30.0 30.0)
           (-30.0 30.0)
  end
  begin
     id 16
     name head
     direction 0.0903589 0.994284 -0.056876  
     length 1.78268  
     axis 0 0 0   XYZ
    dof rx ry rz
    limits (-20.0 45.0)
           (-30.0 30.0)
           (-30.0 30.0)
  end
  begin
     id 17 
     name lclavicle
     direction 0.946008 0.242039 -0.215608  
     length 3.80783  
     axis 0 0 0   XYZ
    dof ry rz
    limits (-20.0 10.0)
           (0.0 20.0)
  end
  begin
     id 18 
     name lhumerus
     direction 1 -4.48991e-011 -2.25695e-027   
     length 4.83125   
     axis 180 -30 -90   XYZ
    dof rx ry rz
    limits (-60.0 90.0)
           (-90.0 90.0)
           (-90.0 90.0)
  end
  begin
     id 19
     name lradius
     direction 0.999991 0.00366712 -0.00211721   
     length 3.00391   
     axis 180 -30 -90   XYZ
    dof rx
    limits (-10.0 170.0)
  end
  begin
     id 20
     name lwrist
     direction 0.999991 0.00393016 -0.00141978   
     length 1.50195   
     axis -1.00488e-014 90 90   XYZ
    dof ry
    limits (-180.0 0.0)
 end
  begin
     id 21 
     name lhand
     direction 1 -4.49123e-011 2.72098e-026   
     length 1.2717   
     axis -1.73687e-014 90 90   XYZ
    dof rx rz
    limits (-90.0 90.0)
           (-45.0 45.0)
  end
  begin
     id 22 
     name lfingers
     direction 1 -4.48678e-011 5.4479e-026   
     length 1.02528   
     axis -3.47372e-014 90 90   XYZ
    dof rx
    limits (0.0 90.0)
  end
  begin
     id 23
     name lthumb
     direction 0.707107 -6.34851e-011 0.707107   
     length 1.4721   
     axis -90 45 -1.62303e-014   XYZ
    dof rx rz
    limits (-45.0 45.0)
           (-45.0 45.0)
  end
  begin
     id 24 
     name rclavicle
     direction -0.981723 0.189447 -0.0181673   
     length 3.74989  
     axis 0 0 0   XYZ 
    dof ry rz
    limits (-10.0 20.0)
           (-20.0 0.0)
  end
  begin
     id 25 
     name rhumerus
     direction -1 -4.48985e-011 2.38206e-027  
     length 4.61118   
     axis 180 30 90   XYZ
    dof rx ry rz
    limits (-90.0 60.0)
           (-90.0 90.0)
           (-90.0 90.0)
  end
  begin
     id 26 
     name rradius
     direction -1 -4.48977e-011 7.41019e-027   
     length 2.91491   
     axis 180 30 90   XYZ
    dof rx
    limits (-10.0 170.0)
  end
  begin
     id 27 
     name rwrist
     direction -1 -4.48549e-011 1.3624e-026   
     length 1.45745   
     axis -1.00488e-014 -90 -90   XYZ
    dof ry
    limits (-180.0 0.0)
  end
  begin
     id 28
     name rhand
     direction -1 -4.49107e-011 2.72109e-026   
     length 1.30769   
     axis -1.73687e-014 -90 -90   XYZ
    dof rx rz
    limits (-90.0 90.0)
           (-45.0 45.0)
  end
  begin
     id 29
     name rfingers
     direction -1 -4.48919e-011 5.44468e-026   
     length 1.05429   
     axis -3.47372e-014 -90 -90   XYZ
    dof rx
    limits (0.0 90.0)
  end
  begin
     id 30
     name rthumb
     direction -0.707107 -6.35315e-011 0.707107   
     length 1.51376   
     axis -90 -45 1.62303e-014   XYZ
    dof rx rz
    limits (-45.0 45.0)
           (-45.0 45.0)
  end
:hierarchy
  begin
    root lhipjoint rhipjoint lowerback
    lhipjoint lfemur
    lfemur ltibia
    ltibia lfoot
    lfoot ltoes
    rhipjoint rfemur
    rfemur rtibia
    rtibia rfoot
    rfoot rtoes
    lowerback upperback
    upperback thorax
    thorax lowerneck lclavicle rclavicle
    lowerneck upperneck
    upperneck head
    lclavicle lhumerus
    lhumerus lradius
    lradius lwrist
    lwrist lhand lthumb
    lhand lfingers
    rclavicle rhumerus
    rhumerus rradius
    rradius rwrist
    rwrist rhand rthumb
    rhand rfingers
  end

#!OML:ASF X:\für Bonn\!DataBase\2005_08_11_Bastian_Final\c3d\Bastian.ASF
:FULLY-SPECIFIED
:DEGREES
1
root -1.53291 17.0248 1.55678 163.487 -8.05714 -171.972
lowerback 4.46468 0.144098 9.01612
upperback 5.12748 -0.334531 4.12569
thorax 2.86352 -0.230672 -0.765145
lowerneck -1.21209 -6.42438 -3.77346
upperneck -2.88019 -8.54545 2.38424
head -0.415758 -4.27094 1.33649
rclavicle 1.2101e-014 3.10104e-014
rhumerus -41.0849 32.9884 -93.0177
rradius 45.1363
rwrist -13.5152
rhand -43.9581 10.831
rfingers 7.12502
rthumb -16.7809 -18.4638
lclavicle 1.2101e-014 3.10104e-014
lhumerus -27.875 -27.4197 98.9621
lradius 37.9783
lwrist 6.3223
lhand -43.9805 0.715678
lfingers 7.12502
lthumb -16.8024 30.0087
rfemur 1.67894 -8.93887 28.9616
rtibia 41.9882
rfoot -24.1973 -10.5319
rtoes 5.44284
lfemur 2.91666 -1.93232 -10.7074
ltibia 39.0544
lfoot -19.8347 -4.4389
ltoes -11.8364
2
root -1.55908 17.0384 1.57541 163.294 -8.56177 -171.963
lowerback 4.93193 -0.0246173 8.82603
upperback 5.20907 -0.523096 4.08789
thorax 2.67072 -0.33999 -0.693295
lowerneck -1.39662 -6.46827 -3.73316
upperneck -2.87473 -8.59796 2.52222
head -0.37732 -4.29881 1.36476
rclavicle 1.14798e-014 -5.00937e-014
rhumerus -42.1315 32.8615 -94.2925
rradius 43.3
rwrist -15.5954
rhand -43.8652 10.1616
rfingers 7.12502
rthumb -16.6915 -19.1408
lclavicle 1.14798e-014 -5.00937e-014
lhumerus -26.8713 -27.3411 98.7276
lradius 40.0358
lwrist 6.58026
lhand -44.5728 0.21942
lfingers 7.12502
lthumb -17.3725 29.463
rfemur 1.47539 -9.40825 28.5925
rtibia 42.435
rfoot -23.67 -10.4108
rtoes 5.45286
lfemur 3.08983 -2.19319 -10.9164
ltibia 38.7713
lfoot -19.5855 -4.53953
ltoes -12.2928
3
root -1.58728 17.049 1.59771 163.126 -9.06637 -171.981
lowerback 5.40772 -0.194984 8.65624
upperback 5.2817 -0.710809 4.02568
thorax 2.46501 -0.447309 -0.655041
lowerneck -1.56154 -6.51679 -3.67967
upperneck -2.87249 -8.65781 2.66249
head -0.343278 -4.33043 1.3923
rclavicle 2.27111e-014 -1.59028e-015
rhumerus -43.1686 32.8203 -95.6196
rradius 41.5646
rwrist -17.8436
rhand -43.7877 9.34751
rfingers 7.12502
rthumb -16.6168 -19.9611
lclavicle 2.27111e-014 -1.59028e-015
lhumerus -25.8662 -27.3098 98.4828
lradius 42.1201
lwrist 6.71262
lhand -45.1679 -0.306427
lfingers 7.12502
lthumb -17.9452 28.8857
rfemur 1.16683 -9.94644 28.1424
rtibia 43.0472
rfoot -23.1082 -10.141
rtoes 5.46736
lfemur 3.23294 -2.47068 -11.1733
ltibia 38.4724
lfoot -19.2924 -4.64276
ltoes -12.7264
4
root -1.61818 17.0589 1.62226 163.012 -9.5704 -171.973
lowerback 5.7566 -0.358093 8.54105
upperback 5.40265 -0.914948 3.98218
thorax 2.38224 -0.559068 -0.625891
lowerneck -1.79846 -6.5644 -3.65463
upperneck -2.90056 -8.71598 2.8015
head -0.305515 -4.36129 1.42204
rclavicle 8.64713e-015 -6.36111e-015
rhumerus -44.0693 32.8271 -96.8585
rradius 39.9178
rwrist -20.1738
rhand -43.7354 8.42775
rfingers 7.12502
rthumb -16.5665 -20.8851
lclavicle 8.64713e-015 -6.36111e-015
lhumerus -24.6865 -27.3076 98.224
lradius 44.178
lwrist 6.616
lhand -45.7487 -0.631996
lfingers 7.12502
lthumb -18.5039 28.5079
rfemur 0.706111 -10.4021 27.7217
rtibia 43.8534
rfoot -22.5011 -9.79885
rtoes 5.77872
lfemur 3.30705 -2.74318 -11.4082
ltibia 38.1717
lfoot -18.9429 -4.77647
ltoes -12.7292
5
root -1.64911 17.0696 1.64952 162.953 -10.0491 -171.956
lowerback 6.06254 -0.510366 8.4645
upperback 5.52254 -1.1083 3.93002
thorax 2.32376 -0.663049 -0.626248
lowerneck -2.06077 -6.61509 -3.60276
upperneck -2.92234 -8.77878 2.94551
head -0.2623 -4.39473 1.44763
rclavicle 2.69974e-014 2.38542e-015
rhumerus -44.8697 32.7379 -98.0446
rradius 38.316
rwrist -22.4269
rhand -43.622 7.45227
rfingers 7.12502
rthumb -16.4573 -21.8697
lclavicle 2.69974e-014 2.38542e-015
lhumerus -23.4574 -27.371 97.9417
lradius 46.2402
lwrist 6.32746
lhand -46.2994 -0.859258
lfingers 7.12502
lthumb -19.0337 28.2294
rfemur 0.0571158 -10.7322 27.3285
rtibia 44.8645
rfoot -21.7225 -9.39089
rtoes 6.51347
lfemur 3.30285 -2.94263 -11.6118
ltibia 37.887
lfoot -18.5826 -4.96117
ltoes -12.3779
6
root -1.6819 17.0801 1.67891 162.891 -10.5112 -171.966
lowerback 6.36545 -0.662597 8.40168
upperback 5.66886 -1.30695 3.86608
thorax 2.29481 -0.768887 -0.644933
lowerneck -2.35364 -6.66552 -3.53639
upperneck -2.95171 -8.84237 3.06877
head -0.217927 -4.42874 1.46327
rclavicle 2.55314e-014 -7.95139e-015
rhumerus -45.6428 32.7366 -99.2261
rradius 36.824
rwrist -24.7453
rhand -43.4454 6.33912
rfingers 7.12502
rthumb -16.2872 -22.9969
lclavicle 2.55314e-014 -7.95139e-015
lhumerus -22.1664 -27.4387 97.628
lradius 48.3211
lwrist 5.81777
lhand -46.8246 -0.953585
lfingers 7.12502
lthumb -19.5386 28.0846
rfemur -0.72291 -11.0118 26.8931
rtibia 46.1068
rfoot -20.7385 -8.96581
rtoes 7.25475
lfemur 3.30854 -3.13971 -11.8582
ltibia 37.5981
lfoot -18.2664 -5.08979
ltoes -12.2301
7
root -1.71445 17.0886 1.7094 162.805 -10.9249 -171.984
lowerback 6.67187 -0.797576 8.32776
upperback 5.85595 -1.49384 3.81551
thorax 2.30903 -0.870467 -0.643198
lowerneck -2.63996 -6.71116 -3.48132
upperneck -3.03929 -8.90118 3.2315
head -0.190361 -4.46118 1.49478
rclavicle 1.94995e-014 -5.56597e-015
rhumerus -46.301 32.7119 -100.317
rradius 35.366
rwrist -26.8848
rhand -43.1705 5.15334
rfingers 7.12502
rthumb -16.0226 -24.2041
lclavicle 1.94995e-014 -5.56597e-015
lhumerus -20.806 -27.6177 97.2963
lradius 50.4409
lwrist 5.22183
lhand -47.3592 -0.918801
lfingers 7.12502
lthumb -20.0525 28.0664
rfemur -1.6352 -11.2423 26.441
rtibia 47.5858
rfoot -19.4998 -8.4898
rtoes 7.81525
lfemur 3.36155 -3.27968 -12.0872
ltibia 37.2817
lfoot -17.9212 -5.28581
ltoes -11.658
